<svg width="57" height="56" viewBox="0 0 57 56" fill="none" xmlns="http://www.w3.org/2000/svg">
<path d="M37.2483 0H19.7517C3.78504 0 0 3.71863 0 19.4051V36.5949C0 52.2814 3.78504 56 19.7517 56H37.2483C53.215 56 57 52.2814 57 36.5949V19.4051C57 3.71863 53.1776 0 37.2483 0ZM46.0154 39.9478H41.8777C40.3102 39.9478 39.8275 38.7263 37.0079 35.9194C34.5587 33.5867 33.474 33.277 32.8702 33.277C32.017 33.277 31.7747 33.5132 31.7747 34.6629V38.3361C31.7747 39.3213 31.4595 39.9128 28.8055 39.9128C24.4166 39.9128 19.5468 37.3053 16.1323 32.4475C10.9828 25.3287 9.57392 19.9966 9.57392 18.8942C9.57392 18.3009 9.81438 17.7462 10.9739 17.7462H15.1206C16.1697 17.7462 16.5687 18.2204 16.9766 19.3229C19.0267 25.138 22.4413 30.2321 23.8502 30.2321C24.3703 30.2321 24.6108 29.9958 24.6108 28.6921V22.6863C24.4522 19.9161 22.9685 19.6781 22.9685 18.6947C22.9685 18.2204 23.3675 17.7462 24.0069 17.7462H30.5279C31.4096 17.7462 31.7338 18.2204 31.7338 19.2407V27.3429C31.7338 28.2179 32.1327 28.5276 32.3732 28.5276C32.8933 28.5276 33.3386 28.2179 34.3022 27.2694C37.2804 23.9883 39.4143 18.9292 39.4143 18.9292C39.6921 18.3359 40.1748 17.7812 41.224 17.7812H45.3706C46.6139 17.7812 46.8917 18.4094 46.6139 19.2844C46.0937 21.6538 41.0191 28.6904 41.0191 28.6904C40.5827 29.4008 40.4153 29.7106 41.0191 30.5033C41.4644 31.0965 42.9125 32.3267 43.8762 33.4292C45.6484 35.4066 47.0111 37.0656 47.3744 38.2136C47.7823 39.3528 47.1803 39.946 46.01 39.946L46.0154 39.9478Z" fill="white"/>
</svg>
