<svg width="22" height="22" viewBox="0 0 22 22" fill="none" xmlns="http://www.w3.org/2000/svg">
<path fill-rule="evenodd" clip-rule="evenodd" d="M1.12091 1.12138C-0.0507202 2.29295 -0.0507202 4.19242 1.12091 5.36399L6.7984 11.0415L1.1413 16.6986C-0.0303345 17.8701 -0.0303345 19.7696 1.1413 20.9412C2.31281 22.1128 4.21234 22.1128 5.38385 20.9412L11.041 15.2841L16.6772 20.9204C17.8488 22.0919 19.7484 22.0919 20.9199 20.9204C22.0915 19.7488 22.0915 17.8493 20.9199 16.6777L15.2836 11.0415L20.9402 5.38483C22.1118 4.21326 22.1118 2.31379 20.9402 1.14219C19.7686 -0.0293808 17.8692 -0.0293808 16.6976 1.14219L11.041 6.79881L5.36359 1.12138C4.19196 -0.0502243 2.29242 -0.0502243 1.12091 1.12138Z" fill="white"/>
</svg>
