<svg width="254" height="70" viewBox="0 0 254 70" fill="none" xmlns="http://www.w3.org/2000/svg">
<g clip-path="url(#clip0_149_66)">
<path d="M60.7249 9.38923C66.446 15.2696 70.2077 23.1038 70.9403 31.8099C70.986 32.3564 70.5626 32.8273 70.0172 32.8273H57.8927C57.4018 32.8273 56.9969 32.4418 56.9686 31.949C56.6018 25.6261 55.0768 19.6177 52.6049 14.1371C52.3916 13.665 52.6005 13.1119 53.0697 12.8984C55.337 11.8699 57.502 10.6542 59.5472 9.27094C59.9173 9.02014 60.4136 9.06942 60.7249 9.39033V9.38923ZM37.6231 17.5838V31.8942C37.6231 32.409 38.0378 32.8262 38.5494 32.8262H51.8441C52.3796 32.8262 52.8052 32.3706 52.7693 31.834C52.3731 26.0117 50.8731 20.4971 48.4774 15.5018C48.2804 15.091 47.8178 14.8862 47.3835 15.0144C44.5252 15.8566 41.546 16.4141 38.4787 16.6561C37.9965 16.6945 37.6231 17.0975 37.6231 17.5849V17.5838ZM18.3397 14.136C15.8678 19.6166 14.3428 25.6251 13.976 31.9479C13.9477 32.4407 13.5428 32.8262 13.0519 32.8262H0.926287C0.380961 32.8262 -0.0424555 32.3553 0.00326041 31.8088C0.735804 23.1027 4.49757 15.2685 10.2186 9.38814C10.531 9.06723 11.0262 9.01904 11.3963 9.26875C13.4416 10.652 15.6065 11.8689 17.8738 12.8962C18.343 13.1087 18.552 13.6629 18.3386 14.1349L18.3397 14.136ZM22.4661 15.5018C20.0704 20.4971 18.5694 26.0128 18.1743 31.834C18.1373 32.3717 18.5639 32.8262 19.0995 32.8262H32.3941C32.9057 32.8262 33.3204 32.409 33.3204 31.8942V17.5838C33.3204 17.0964 32.947 16.6934 32.4649 16.655C29.3986 16.413 26.4195 15.8555 23.56 15.0133C23.1257 14.8851 22.662 15.091 22.4661 15.5007V15.5018ZM15.403 6.56132C16.8975 7.48023 18.4573 8.30056 20.0736 9.01575C20.4971 9.20304 20.9923 9.04423 21.234 8.64775C22.7687 6.1287 24.5179 3.75532 26.4554 1.55608C27.078 0.848558 26.3912 -0.232443 25.4921 0.0424622C21.8337 1.15961 18.4213 2.84846 15.3562 5.00499C14.812 5.38832 14.8359 6.21194 15.403 6.56023V6.56132ZM26.315 11.169C28.259 11.6597 30.2596 12.0058 32.3059 12.1941C32.8502 12.2445 33.3215 11.8152 33.3215 11.2654V3.31613C33.3215 2.49251 32.3408 2.07632 31.7497 2.64694C29.526 4.79142 27.5221 7.16918 25.7783 9.73971C25.4159 10.2742 25.6913 11.0124 26.315 11.1701V11.169ZM44.4881 1.55718C46.4256 3.75642 48.1748 6.1287 49.7096 8.64885C49.9512 9.04533 50.4465 9.20414 50.8699 9.01685C52.4863 8.30166 54.045 7.48023 55.5405 6.56242C56.1076 6.21413 56.1326 5.39051 55.5873 5.00718C52.5222 2.85065 49.1087 1.1618 45.4514 0.0446527C44.5524 -0.230252 43.8655 0.850748 44.4881 1.55827V1.55718ZM37.6231 3.31613V11.2654C37.6231 11.8152 38.0934 12.2445 38.6387 12.1941C40.685 12.0058 42.6856 11.6597 44.6296 11.169C45.2533 11.0113 45.5287 10.2731 45.1663 9.73861C43.4225 7.16809 41.4197 4.79032 39.1949 2.64584C38.6038 2.07632 37.6231 2.49142 37.6231 3.31504V3.31613ZM60.7249 60.6103C66.446 54.7299 70.2077 46.8957 70.9403 38.1896C70.986 37.6431 70.5626 37.1722 70.0172 37.1722H57.8927C57.4018 37.1722 56.9969 37.5577 56.9686 38.0505C56.6018 44.3734 55.0768 50.3818 52.6049 55.8624C52.3916 56.3345 52.6005 56.8875 53.0697 57.1011C55.337 58.1295 57.502 59.3453 59.5472 60.7285C59.9173 60.9794 60.4136 60.9301 60.7249 60.6092V60.6103ZM48.4774 54.4977C50.8731 49.5024 52.3741 43.9867 52.7693 38.1655C52.8063 37.6278 52.3796 37.1732 51.8441 37.1732H38.5494C38.0378 37.1732 37.6231 37.5905 37.6231 38.1053V52.4157C37.6231 52.9031 37.9965 53.3061 38.4787 53.3444C41.5449 53.5865 44.5241 54.144 47.3835 54.9862C47.8178 55.1144 48.2815 54.9085 48.4774 54.4988V54.4977ZM18.3397 55.8635C15.8678 50.3829 14.3428 44.3744 13.976 38.0516C13.9477 37.5588 13.5428 37.1732 13.0519 37.1732H0.926287C0.380961 37.1732 -0.0424555 37.6442 0.00326041 38.1907C0.735804 46.8968 4.49757 54.731 10.2186 60.6114C10.531 60.9323 11.0262 60.9805 11.3963 60.7307C13.4416 59.3475 15.6065 58.1306 17.8738 57.1033C18.343 56.8908 18.552 56.3366 18.3386 55.8646L18.3397 55.8635ZM33.3204 52.4157V38.1053C33.3204 37.5905 32.9057 37.1732 32.3941 37.1732H19.0995C18.5639 37.1732 18.1383 37.6289 18.1743 38.1655C18.5705 43.9878 20.0704 49.5024 22.4661 54.4977C22.6631 54.9085 23.1257 55.1133 23.56 54.9851C26.4184 54.1429 29.3975 53.5854 32.4649 53.3434C32.947 53.305 33.3204 52.902 33.3204 52.4146V52.4157ZM26.4554 68.4423C24.5179 66.2431 22.7687 63.8708 21.234 61.3506C20.9923 60.9542 20.4971 60.7954 20.0736 60.9826C18.4573 61.6978 16.8986 62.5193 15.403 63.4371C14.8359 63.7854 14.8109 64.609 15.3562 64.9923C18.4213 67.1488 21.8348 68.8377 25.4921 69.9548C26.3912 70.2297 27.078 69.1487 26.4554 68.4412V68.4423ZM33.3204 66.6834V58.7341C33.3204 58.1843 32.8502 57.755 32.3048 57.8054C30.2585 57.9937 28.2579 58.3398 26.3139 58.8305C25.6902 58.9882 25.4148 59.7264 25.7773 60.2609C27.521 62.8314 29.5238 65.2092 31.7486 67.3536C32.3397 67.9232 33.3204 67.5081 33.3204 66.6845V66.6834ZM55.5405 63.4382C54.046 62.5193 52.4863 61.6989 50.8699 60.9837C50.4465 60.7965 49.9512 60.9553 49.7096 61.3517C48.1748 63.8708 46.4256 66.2442 44.4881 68.4434C43.8655 69.1509 44.5524 70.2319 45.4514 69.957C49.1098 68.8399 52.5222 67.151 55.5873 64.9945C56.1316 64.6112 56.1076 63.7876 55.5405 63.4393V63.4382ZM44.6286 58.8305C42.6845 58.3398 40.6839 57.9937 38.6376 57.8054C38.0934 57.755 37.622 58.1843 37.622 58.7341V66.6834C37.622 67.507 38.6028 67.9232 39.1938 67.3526C41.4176 65.2081 43.4214 62.8303 45.1652 60.2598C45.5276 59.7253 45.2523 58.9871 44.6286 58.8294V58.8305Z" fill="#4A96FF"/>
<path d="M80.7627 48.5344V38.9149H83.4752V44.3593H83.1094L87.5167 38.9149H89.6457V48.5344H86.9333V43.0899H87.299L82.8918 48.5344H80.7627ZM91.2186 48.5344V38.9149H94.1477V42.4624H97.4164V38.9149H100.345V48.5344H97.4164V44.8642H94.1477V48.5344H91.2186ZM104.06 48.5344V41.2883H101.294V38.9138H109.755V41.2883H106.988V48.5344H104.059H104.06ZM110.706 48.5344V38.9149H117.798V41.1525H113.5V42.5303H117.473V44.7679H113.5V46.2957H117.798V48.5333H110.706V48.5344ZM118.951 48.5344V38.9149H123.887C125.017 38.9149 125.867 39.1942 126.436 39.7538C127.005 40.3135 127.291 41.0659 127.291 42.0122C127.291 42.9585 127.005 43.7 126.436 44.264C125.867 44.8281 125.017 45.1096 123.887 45.1096H121.88V48.5344H118.951ZM121.88 42.8709H123.494C123.838 42.8709 124.091 42.7953 124.254 42.6453C124.416 42.4952 124.498 42.2838 124.498 42.0111C124.498 41.7384 124.416 41.527 124.254 41.377C124.092 41.2269 123.838 41.1514 123.494 41.1514H121.88V42.8709ZM128.362 48.5344V38.9149H131.291V42.4624H134.559V38.9149H137.489V48.5344H134.559V44.8642H131.291V48.5344H128.362ZM139.061 48.5344V38.9149H146.154V41.1525H141.856V42.5303H145.828V44.7679H141.856V46.2957H146.154V48.5333H139.061V48.5344ZM149.584 48.5344V41.2883H146.817V38.9138H155.279V41.2883H152.512V48.5344H149.583H149.584ZM155.551 45.8456V43.6628H160.162V45.8456H155.551ZM166.603 48.6976C165.536 48.6976 164.611 48.4906 163.83 48.0766C163.047 47.6626 162.442 47.0832 162.012 46.3373C161.582 45.5915 161.368 44.7186 161.368 43.7175C161.368 42.7165 161.582 41.8458 162.012 41.1043C162.441 40.3628 163.047 39.7856 163.83 39.3716C164.611 38.9576 165.536 38.7506 166.603 38.7506C167.254 38.7506 167.853 38.8349 168.4 39.0025C168.947 39.1712 169.402 39.4099 169.763 39.7188L168.909 42.0254C168.501 41.7527 168.136 41.5643 167.81 41.4591C167.485 41.3551 167.119 41.3025 166.712 41.3025C165.979 41.3025 165.417 41.5095 165.024 41.9235C164.631 42.3375 164.434 42.9355 164.434 43.7175C164.434 44.4995 164.631 45.1118 165.024 45.5258C165.417 45.9398 165.979 46.1468 166.712 46.1468C167.119 46.1468 167.485 46.0942 167.81 45.9901C168.136 45.8861 168.501 45.6966 168.909 45.4239L169.763 47.7305C169.402 48.0393 168.947 48.2781 168.4 48.4468C167.853 48.6154 167.254 48.6987 166.603 48.6987V48.6976ZM170.888 48.5344V38.9149H177.981V41.1525H173.683V42.5303H177.655V44.7679H173.683V46.2957H177.981V48.5333H170.888V48.5344ZM179.134 48.5344V38.9149H184.07C185.2 38.9149 186.05 39.1942 186.619 39.7538C187.188 40.3135 187.474 41.0659 187.474 42.0122C187.474 42.9585 187.188 43.7 186.619 44.264C186.05 44.8281 185.2 45.1096 184.07 45.1096H182.063V48.5344H179.134ZM182.063 42.8709H183.677C184.021 42.8709 184.273 42.7953 184.437 42.6453C184.599 42.4952 184.68 42.2838 184.68 42.0111C184.68 41.7384 184.599 41.527 184.437 41.377C184.274 41.2269 184.021 41.1514 183.677 41.1514H182.063V42.8709ZM188.545 48.5344V38.9149H193.441C194.516 38.9149 195.345 39.1405 195.929 39.5907C196.512 40.0408 196.804 40.6432 196.804 41.3989C196.804 41.9542 196.643 42.4317 196.323 42.8315C196.002 43.2323 195.561 43.505 195 43.6507V43.4185C195.67 43.5554 196.185 43.8259 196.546 44.2301C196.907 44.6353 197.088 45.1512 197.088 45.7788C197.088 46.6155 196.771 47.2847 196.139 47.7841C195.506 48.2847 194.652 48.5344 193.576 48.5344H188.545ZM191.339 42.585H192.884C193.282 42.585 193.569 42.5237 193.745 42.401C193.922 42.2784 194.01 42.0801 194.01 41.8074C194.01 41.5347 193.922 41.3387 193.745 41.2204C193.569 41.1021 193.282 41.0429 192.884 41.0429H191.339V42.585ZM191.339 46.4052H193.183C193.58 46.4052 193.869 46.3351 194.05 46.1939C194.231 46.0526 194.321 45.8412 194.321 45.5597C194.321 45.2782 194.231 45.0548 194.05 44.9179C193.869 44.781 193.58 44.7131 193.183 44.7131H191.339V46.4052ZM198.146 48.5344V38.9149H200.858V44.3593H200.493L204.9 38.9149H207.029V48.5344H204.317V43.0899H204.682L200.275 48.5344H198.146ZM213.606 48.6976C212.539 48.6976 211.614 48.4906 210.832 48.0766C210.05 47.6626 209.444 47.0832 209.014 46.3373C208.585 45.5915 208.37 44.7186 208.37 43.7175C208.37 42.7165 208.585 41.8458 209.014 41.1043C209.443 40.3628 210.05 39.7856 210.832 39.3716C211.614 38.9576 212.539 38.7506 213.606 38.7506C214.257 38.7506 214.855 38.8349 215.403 39.0025C215.949 39.1712 216.404 39.4099 216.765 39.7188L215.911 42.0254C215.504 41.7527 215.138 41.5643 214.813 41.4591C214.487 41.3551 214.122 41.3025 213.714 41.3025C212.982 41.3025 212.419 41.5095 212.026 41.9235C211.633 42.3375 211.436 42.9355 211.436 43.7175C211.436 44.4995 211.633 45.1118 212.026 45.5258C212.419 45.9398 212.982 46.1468 213.714 46.1468C214.122 46.1468 214.487 46.0942 214.813 45.9901C215.138 45.8861 215.504 45.6966 215.911 45.4239L216.765 47.7305C216.404 48.0393 215.949 48.2781 215.403 48.4468C214.855 48.6154 214.257 48.6987 213.606 48.6987V48.6976ZM80.7627 64.9082V55.2887H89.8351V64.9082H86.9333V57.6347H83.6646V64.9082H80.7627ZM91.408 64.9082V55.2887H96.3442C97.4741 55.2887 98.3242 55.568 98.8934 56.1277C99.4627 56.6873 99.7479 57.4398 99.7479 58.3861C99.7479 59.3323 99.4627 60.0738 98.8934 60.6379C98.3242 61.2019 97.4741 61.4834 96.3442 61.4834H94.3371V64.9082H91.408ZM94.3371 59.2458H95.9513C96.2952 59.2458 96.5478 59.1702 96.711 59.0202C96.8732 58.8701 96.9549 58.6588 96.9549 58.3861C96.9549 58.1133 96.8732 57.902 96.711 57.7519C96.5489 57.6019 96.2952 57.5263 95.9513 57.5263H94.3371V59.2458ZM100.453 60.0913C100.453 59.1001 100.655 58.2316 101.056 57.4847C101.459 56.7388 102.03 56.1594 102.772 55.7454C103.513 55.3314 104.39 55.1244 105.403 55.1244C106.415 55.1244 107.305 55.3314 108.046 55.7454C108.788 56.1594 109.361 56.7399 109.768 57.4847C110.175 58.2305 110.379 59.099 110.379 60.0913C110.379 61.0836 110.175 61.9522 109.768 62.698C109.361 63.4439 108.788 64.0265 108.046 64.4449C107.305 64.8633 106.423 65.0725 105.403 65.0725C104.382 65.0725 103.513 64.8633 102.772 64.4449C102.03 64.0265 101.458 63.4417 101.056 62.6914C100.653 61.9412 100.453 61.0749 100.453 60.0924V60.0913ZM103.518 60.0913C103.518 60.892 103.67 61.5151 103.972 61.9609C104.275 62.4067 104.752 62.629 105.403 62.629C106.053 62.629 106.535 62.4034 106.847 61.9532C107.159 61.5031 107.315 60.8821 107.315 60.0902C107.315 59.2984 107.159 58.6807 106.847 58.2349C106.535 57.7891 106.053 57.5668 105.403 57.5668C104.752 57.5668 104.275 57.787 103.972 58.2283C103.67 58.6697 103.518 59.2907 103.518 60.0913ZM111.722 64.9082V55.2887H116.618C117.694 55.2887 118.523 55.5143 119.106 55.9645C119.69 56.4146 119.982 57.017 119.982 57.7727C119.982 58.328 119.82 58.8055 119.5 59.2053C119.179 59.6061 118.739 59.8789 118.178 60.0245V59.7923C118.847 59.9292 119.362 60.1998 119.724 60.6039C120.085 61.0092 120.266 61.525 120.266 62.1526C120.266 62.9893 119.949 63.6585 119.316 64.158C118.684 64.6585 117.83 64.9082 116.753 64.9082H111.722ZM114.516 58.9589H116.062C116.459 58.9589 116.747 58.8975 116.923 58.7749C117.099 58.6522 117.187 58.454 117.187 58.1812C117.187 57.9085 117.099 57.7125 116.923 57.5942C116.747 57.4759 116.459 57.4168 116.062 57.4168H114.516V58.9589ZM114.516 62.7802H116.36C116.757 62.7802 117.047 62.7101 117.228 62.5688C117.408 62.4275 117.499 62.2161 117.499 61.9346C117.499 61.6531 117.408 61.4297 117.228 61.2928C117.047 61.1559 116.757 61.088 116.36 61.088H114.516V62.7802ZM119.94 64.9082L124.483 55.2887H126.856L131.427 64.9082H128.498L127.358 62.3015L128.456 63.1208H122.91L123.995 62.3015L122.855 64.9082H119.939H119.94ZM125.663 58.2908L124.267 61.6608L123.86 60.8963H127.507L127.142 61.6608L125.731 58.2908H125.663ZM131.752 64.9082V55.2887H134.465V60.7332H134.099L138.506 55.2887H140.635V64.9082H137.923V59.4638H138.289L133.881 64.9082H131.752ZM136.173 54.5385C135.53 54.5385 134.997 54.441 134.573 54.245C134.148 54.0489 133.825 53.7904 133.603 53.4673C133.381 53.1442 133.244 52.797 133.189 52.4236L134.478 52.014C134.631 52.4236 134.841 52.7149 135.108 52.8869C135.375 53.0599 135.738 53.1464 136.2 53.1464C136.661 53.1464 137.038 53.0468 137.305 52.8463C137.571 52.6459 137.754 52.3732 137.854 52.0271L139.102 52.4225C138.993 53.0325 138.688 53.5374 138.186 53.9372C137.685 54.338 137.013 54.5374 136.173 54.5374V54.5385ZM141.543 67.3648V62.698H142.547C142.917 62.2435 143.195 61.6115 143.38 60.8011C143.566 59.9917 143.658 59.0136 143.658 57.8669V55.2876H151.361V62.6969H152.758V67.3637H150.263V64.9071H144.038V67.3637H141.543V67.3648ZM145.408 62.698H148.459V57.4989H146.317V58.1944C146.317 59.213 146.24 60.0979 146.086 60.8481C145.933 61.5984 145.707 62.215 145.408 62.6969V62.698ZM153.843 64.9082V55.2887H160.935V57.5263H156.637V58.9041H160.61V61.1417H156.637V62.6695H160.935V64.9071H153.843V64.9082ZM162.088 64.9082V55.2887H167.024C168.154 55.2887 169.004 55.568 169.574 56.1277C170.143 56.6873 170.428 57.4398 170.428 58.3861C170.428 59.3323 170.143 60.0738 169.574 60.6379C169.004 61.2019 168.154 61.4834 167.024 61.4834H165.017V64.9082H162.088ZM165.017 59.2458H166.631C166.975 59.2458 167.228 59.1702 167.391 59.0202C167.554 58.8701 167.635 58.6588 167.635 58.3861C167.635 58.1133 167.553 57.902 167.391 57.7519C167.229 57.6019 166.975 57.5263 166.631 57.5263H165.017V59.2458Z" fill="#4A96FF"/>
<path d="M80.7627 15.4823C80.7627 12.9172 81.283 10.6709 82.3236 8.74109C83.3642 6.81238 84.8434 5.3119 86.7613 4.24185C88.6781 3.1718 90.9465 2.63623 93.5653 2.63623C96.1842 2.63623 98.4874 3.1718 100.405 4.24185C102.322 5.3119 103.808 6.81238 104.86 8.74109C105.913 10.6709 106.44 12.9172 106.44 15.4823C106.44 18.0473 105.913 20.2948 104.86 22.2235C103.808 24.1533 102.323 25.6592 100.405 26.7413C98.4874 27.8234 96.2082 28.3645 93.5653 28.3645C90.9225 28.3645 88.6781 27.8234 86.7613 26.7413C84.8434 25.6592 83.3642 24.1467 82.3236 22.206C81.283 20.2652 80.7627 18.0232 80.7627 15.4823ZM88.6901 15.4823C88.6901 17.5534 89.0819 19.1645 89.8645 20.3178C90.6471 21.4711 91.8815 22.0471 93.5653 22.0471C95.2492 22.0471 96.4944 21.4645 97.301 20.3002C98.1075 19.136 98.5114 17.5304 98.5114 15.4823C98.5114 13.4342 98.1075 11.8351 97.301 10.683C96.4944 9.52966 95.2492 8.95357 93.5653 8.95357C91.8815 8.95357 90.6482 9.52419 89.8645 10.6654C89.0808 11.8067 88.6901 13.4123 88.6901 15.4834V15.4823Z" fill="#4A96FF"/>
<path d="M109.911 27.9406V3.05896H122.679C125.602 3.05896 127.8 3.78291 129.273 5.22972C130.746 6.67653 131.482 8.62387 131.482 11.0706C131.482 13.5174 130.746 15.4352 129.273 16.894C127.8 18.3529 125.601 19.0823 122.679 19.0823H117.488V27.9406H109.911ZM117.487 13.294H121.661C122.549 13.294 123.203 13.1001 123.625 12.7113C124.045 12.3236 124.256 11.776 124.256 11.0706C124.256 10.3653 124.046 9.81768 123.625 9.42996C123.203 9.04225 122.549 8.8473 121.661 8.8473H117.487V13.294Z" fill="#4A96FF"/>
<path d="M134.253 27.9406V3.05896H153.79V8.7772H141.443V12.3773H147.441C150.223 12.3773 152.42 13.0541 154.034 14.4067C155.649 15.7604 156.455 17.6716 156.455 20.1425C156.455 22.6134 155.649 24.5596 154.034 25.9133C152.42 27.267 150.223 27.9428 147.441 27.9428H134.251L134.253 27.9406ZM141.443 22.3297H146.389C147.464 22.3297 148.23 22.1479 148.686 21.7832C149.142 21.4184 149.37 20.8719 149.37 20.1425C149.37 19.4131 149.142 18.872 148.686 18.5183C148.23 18.1656 147.464 17.9893 146.389 17.9893H141.443V22.3308V22.3297Z" fill="#4A96FF"/>
<path d="M159.227 27.9406V3.05896H166.242V17.1415H165.295L176.694 3.05896H182.201V27.9417H175.186V13.8591H176.133L164.733 27.9406H159.227Z" fill="#4A96FF"/>
<path d="M191.811 27.9406V9.19996H184.655V3.05896H206.543V9.19996H199.387V27.9406H191.81H191.811Z" fill="#4A96FF"/>
<path d="M208.998 27.9406V3.05896H227.342V8.8473H216.223V12.4123H226.501V18.1995H216.223V22.1523H227.342V27.9406H208.998Z" fill="#4A96FF"/>
<path d="M232.358 28.647L228.57 23.3526C229.576 22.7645 230.423 22.0942 231.113 21.3407C231.803 20.5872 232.363 19.7164 232.797 18.7285C233.229 17.7406 233.544 16.5994 233.744 15.3048C233.942 14.0113 234.042 12.5284 234.042 10.8582V3.05896H254V27.9417H246.494V9.12987H240.952V12.7299C240.952 14.7298 240.753 16.5654 240.356 18.2357C239.959 19.9059 239.392 21.4064 238.655 22.7349C237.918 24.0645 237.018 25.2233 235.954 26.2112C234.89 27.1991 233.691 28.0107 232.359 28.6459L232.358 28.647Z" fill="#4A96FF"/>
</g>
<defs>
<clipPath id="clip0_149_66">
<rect width="254" height="70" fill="white"/>
</clipPath>
</defs>
</svg>
